G04 DipTrace 3.3.1.1*
G04 RECU_BLU-Bottom.gbr*
%MOIN*%
G04 #@! TF.FileFunction,Copper,L2,Bot*
G04 #@! TF.Part,Single*
G04 #@! TA.AperFunction,Conductor*
%ADD13C,0.05*%
%ADD14C,0.01*%
%ADD15C,0.03*%
G04 #@! TA.AperFunction,ComponentPad*
%ADD16R,0.0691X0.0691*%
%ADD17C,0.0691*%
%ADD18C,0.0791*%
%ADD19C,0.06*%
%ADD20C,0.06*%
%ADD21R,0.06X0.06*%
%ADD22C,0.0691*%
%FSLAX26Y26*%
G04*
G70*
G90*
G75*
G01*
G04 Bottom*
%LPD*%
X734000Y714000D2*
D13*
Y1359000D1*
D14*
D3*
D13*
Y1404000D1*
X784000Y1454000D1*
X1164000D1*
X1304000D1*
X1409000D1*
X1544000D1*
D14*
Y1449000D1*
X1409000Y974000D2*
D13*
Y1454000D1*
X934000Y714000D2*
D15*
Y1094000D1*
X994000Y1154000D1*
X1164000D1*
D16*
X1409000Y974000D3*
D17*
Y874000D3*
Y774000D3*
D18*
X1639000Y1449000D3*
X1544000D3*
D19*
X1304000Y1454000D3*
Y1154000D3*
X1164000Y1454000D3*
Y1154000D3*
X839000Y1174000D3*
Y874000D3*
X1304000Y879000D3*
X1004000D3*
D16*
X834000Y1359000D3*
D17*
X734000D3*
X634000D3*
D19*
X1049000Y579000D3*
D20*
X1349000D3*
D16*
X634000Y714000D3*
D17*
X734000D3*
X834000D3*
X934000D3*
D16*
X469000D3*
D17*
Y814000D3*
D18*
X814000Y464000D3*
D21*
X634000Y1168999D3*
D22*
Y918999D3*
D18*
X1634000Y469000D3*
M02*
