M48
INCH
T01C0.025
T02C0.0354
T03C0.0354
%
T01
X+013040Y+014540
X+011640Y+014540
X+011640Y+011540
X+013040Y+011540
X+013040Y+008790
X+010040Y+008790
X+008390Y+008740
X+008390Y+011740
X+010490Y+005790
X+013490Y+005790
T02
X+006340Y+011690
X+006340Y+009190
T03
X+014090Y+009740
X+014090Y+008740
X+014090Y+007740
X+016340Y+004690
X+009340Y+007140
X+008340Y+007140
X+007340Y+007140
X+006340Y+007140
X+004690Y+007140
X+004690Y+008140
X+008140Y+004640
X+008340Y+013590
X+007340Y+013590
X+006340Y+013590
X+015440Y+014490
X+016390Y+014490
T00
M30
